<?xml version="1.0" encoding="utf-8"?>
<!-- Generator: Adobe Illustrator 18.0.0, SVG Export Plug-In . SVG Version: 6.00 Build 0)  -->
<!DOCTYPE svg PUBLIC "-//W3C//DTD SVG 1.1//EN" "http://www.w3.org/Graphics/SVG/1.1/DTD/svg11.dtd">
<svg version="1.1" id="Layer_1" xmlns="http://www.w3.org/2000/svg" xmlns:xlink="http://www.w3.org/1999/xlink" x="0px" y="0px"
	 viewBox="0 0 47.4 137" enable-background="new 0 0 47.4 137" xml:space="preserve">
<path fill="#FFFFFF" d="M1,137C1,137,1,137,1,137c-0.6,0-1-0.4-1-1c0-0.2,0.2-19,19-19c7,0,12-2.8,14.8-8.4c1.5-3.1,2-6.2,2.1-7.7
	C32,100.6,18,98.2,18,82v-1h18v-8.4l8.6-8.6L36,55.4V37c0-0.6,0.4-1,1-1s1,0.4,1,1v17.6l9.4,9.4L38,73.4V83H20
	c0.3,6.5,3.1,11.2,8.4,13.8C32.6,99,37,99,37,99l1,0l0,1c0,0.2-0.2,19-19,19c-7,0-12,2.8-14.8,8.4C2,131.6,2,136,2,136
	C2,136.6,1.6,137,1,137z"/>
<path fill="#FFFFFF" d="M1,119c0,0-0.1,0-0.1,0c-0.5-0.1-0.9-0.6-0.9-1.1c0.3-2.2,7.2-54.1,9-63.1C12.6,37.2,36.7,36,37,36l8,0
	c-0.2-2.6-1.2-9.6-5.6-16.5C31.9,7.9,19,2,1,2C0.4,2,0,1.6,0,1s0.4-1,1-1c45,0,46,36.6,46,37l0,1H37c-0.2,0-22.7,1.2-26,17.2
	c-1.8,8.9-8.9,62.4-9,62.9C1.9,118.6,1.5,119,1,119z"/>
</svg>
