<?xml version="1.0" encoding="utf-8"?>
<!-- Generator: Adobe Illustrator 18.0.0, SVG Export Plug-In . SVG Version: 6.00 Build 0)  -->
<!DOCTYPE svg PUBLIC "-//W3C//DTD SVG 1.1//EN" "http://www.w3.org/Graphics/SVG/1.1/DTD/svg11.dtd">
<svg version="1.1" id="Layer_1" xmlns="http://www.w3.org/2000/svg" xmlns:xlink="http://www.w3.org/1999/xlink" x="0px" y="0px"
	 viewBox="0 0 47 137" enable-background="new 0 0 47 137" xml:space="preserve">
<path fill="#FFFFFF" d="M46,137c-0.6,0-1-0.4-1-1c0,0,0-4.4-2.2-8.6C40,121.8,35,119,28,119c-18.8,0-19-18.8-19-19v-1l1,0
	c0,0,4.4,0,8.6-2.2c5.3-2.7,8.1-7.3,8.4-13.8H9v-9.1c-3.6-0.5-9-3.1-9-9.9s5.4-9.4,9-9.9V37C9,0.7,45.6,0,46,0c0,0,0,0,0,0
	c0.5,0,1,0.4,1,1c0,0.6-0.4,1-1,1c-0.1,0-8.9,0.1-17.6,4.5C16.9,12.4,11,22.6,11,37v18.9L10.1,56C9.7,56,2,56.6,2,64s7.7,8,8.1,8
	l0.9,0.1l0,8.9h18v1c0,16.2-14,18.6-17.9,18.9c0.1,1.5,0.6,4.6,2.1,7.7C16,114.2,21,117,28,117c18.8,0,19,18.8,19,19
	C47,136.6,46.6,137,46,137C46,137,46,137,46,137z"/>
</svg>
